<svg xmlns="http://www.w3.org/2000/svg" xmlns:xlink="http://www.w3.org/1999/xlink" width="556" height="146" viewBox="0 0 556 146">
  <defs>
    <style>
      .cls-1 {
        fill: #212121;
      }

      .cls-2 {
        clip-path: url(#clip-Logo_negativo);
      }

      .cls-3 {
        fill: url(#linear-gradient);
      }

      .cls-4 {
        fill: url(#linear-gradient-2);
      }

      .cls-5 {
        fill: none;
      }

      .cls-6 {
        isolation: isolate;
      }

      .cls-7 {
        clip-path: url(#clip-path);
      }

      .cls-8 {
        fill: #1c1c1c;
      }

      .cls-9 {
        fill: rgba(255,255,255,0);
      }
    </style>
    <linearGradient id="linear-gradient" x1="0.082" y1="0.905" x2="1.493" y2="-0.434" gradientUnits="objectBoundingBox">
      <stop offset="0" stop-color="#41f0a5"/>
      <stop offset="1" stop-color="#95f8c1"/>
    </linearGradient>
    <linearGradient id="linear-gradient-2" x1="0.948" y1="-0.058" x2="0.061" y2="1" xlink:href="#linear-gradient"/>
    <clipPath id="clip-path">
      <rect id="Rect치ngulo_42" data-name="Rect치ngulo 42" class="cls-1" width="433.384" height="67.725"/>
    </clipPath>
    <clipPath id="clip-Logo_negativo">
      <rect width="556" height="146"/>
    </clipPath>
  </defs>
  <g id="Logo_negativo" data-name="Logo negativo" class="cls-2">
    <rect class="cls-9" width="556" height="146"/>
    <g id="Grupo_1152" data-name="Grupo 1152" transform="translate(15.73 20.563)">
      <path id="Trazado_173" data-name="Trazado 173" class="cls-3" d="M67.689,49.811V64.094a3.6,3.6,0,0,1-3.594,3.594H10.277a3.6,3.6,0,0,1-3.595-3.594V10.276a3.6,3.6,0,0,1,3.595-3.594H64.095a3.6,3.6,0,0,1,3.594,3.594v8.572h6.682V10.276A10.288,10.288,0,0,0,64.095,0H10.277A10.288,10.288,0,0,0,0,10.276V64.094A10.288,10.288,0,0,0,10.277,74.371H64.095A10.288,10.288,0,0,0,74.371,64.094V49.811Z"/>
      <path id="Trazado_175" data-name="Trazado 175" class="cls-4" d="M67.689,49.811V64.094a3.6,3.6,0,0,1-3.594,3.594H10.277a3.6,3.6,0,0,1-3.595-3.594V10.276a3.6,3.6,0,0,1,3.595-3.594H64.095a3.6,3.6,0,0,1,3.594,3.594v8.572h6.682V10.276A10.288,10.288,0,0,0,64.095,0H10.277A10.288,10.288,0,0,0,0,10.276V64.094A10.288,10.288,0,0,0,10.277,74.371H64.095A10.288,10.288,0,0,0,74.371,64.094V49.811Z" transform="translate(104.875 104.874) rotate(180)"/>
      <rect id="Rect치ngulo_66" data-name="Rect치ngulo 66" class="cls-5" width="104.875" height="104.874"/>
    </g>
    <g id="Grupo_1158" data-name="Grupo 1158" transform="translate(-658.142 2625.969)">
      <g id="Grupo_1155" data-name="Grupo 1155" transform="translate(800.314 -2608.113)">
        <path id="Trazado_312" data-name="Trazado 312" class="cls-8" d="M800.314-2595.309h41.522v9.164H826.752v47.442H815.4v-47.442H800.314Z" transform="translate(-800.314 2598.715)"/>
        <path id="Trazado_313" data-name="Trazado 313" class="cls-8" d="M987.493-2608.113h11.354v20.68c2.919-3.812,7.948-6.245,13.948-6.245,10.137,0,17.517,6.812,17.517,19.22v26.357h-11.354v-24.816c0-7.218-3.974-11.11-9.975-11.11-6.163,0-10.137,3.893-10.137,11.11v24.816H987.493Z" transform="translate(-937.7 2608.113)"/>
        <path id="Trazado_314" data-name="Trazado 314" class="cls-8" d="M1200.569-2507.766c-13.056,0-22.545-9.083-22.545-23.194,0-14.192,9.245-23.194,22.545-23.194,12.976,0,22.14,8.84,22.14,22.221a26.548,26.548,0,0,1-.324,4.379H1189.54c.568,6.65,5.109,10.381,10.786,10.381,4.866,0,7.542-2.434,9-5.434h12.246C1219.141-2514.335,1211.68-2507.766,1200.569-2507.766Zm-10.948-27.411h21.329c-.162-5.92-4.866-9.651-10.7-9.651C1194.811-2544.828,1190.513-2541.341,1189.621-2535.177Z" transform="translate(-1077.546 2568.508)"/>
        <path id="Trazado_315" data-name="Trazado 315" class="cls-8" d="M1397.931-2560.437h-9.488v21.734h-11.354v-56.606h20.842c13.624,0,20.437,7.7,20.437,17.517C1418.368-2569.2,1412.528-2560.437,1397.931-2560.437Zm-.487-9.164c6.407,0,9.245-3.163,9.245-8.191,0-5.19-2.838-8.272-9.245-8.272h-9v16.463Z" transform="translate(-1223.656 2598.715)"/>
        <path id="Trazado_316" data-name="Trazado 316" class="cls-8" d="M1574.552-2507.766c-12.976,0-22.789-9.083-22.789-23.194,0-14.192,10.137-23.194,23.113-23.194s23.113,9,23.113,23.194C1597.99-2516.849,1587.609-2507.766,1574.552-2507.766Zm0-9.894c6,0,11.759-4.379,11.759-13.3,0-9-5.6-13.3-11.6-13.3s-11.435,4.3-11.435,13.3C1563.28-2522.039,1568.47-2517.66,1574.552-2517.66Z" transform="translate(-1351.864 2568.508)"/>
        <path id="Trazado_317" data-name="Trazado 317" class="cls-8" d="M1738.024-2551.41h11.516l7.948,34.223,8.6-34.223h12l8.434,34.142,7.948-34.142h10.867l-13.138,44.928h-12.246l-8.191-31.385-8.191,31.385h-12.327Z" transform="translate(-1488.575 2566.494)"/>
        <path id="Trazado_318" data-name="Trazado 318" class="cls-8" d="M2025.789-2507.766c-13.056,0-22.545-9.083-22.545-23.194,0-14.192,9.245-23.194,22.545-23.194,12.976,0,22.14,8.84,22.14,22.221a26.548,26.548,0,0,1-.324,4.379H2014.76c.568,6.65,5.109,10.381,10.786,10.381,4.866,0,7.542-2.434,9-5.434h12.246C2044.36-2514.335,2036.9-2507.766,2025.789-2507.766Zm-10.948-27.411h21.328c-.162-5.92-4.866-9.651-10.7-9.651C2020.031-2544.828,2015.733-2541.341,2014.841-2535.177Z" transform="translate(-1683.241 2568.508)"/>
        <path id="Trazado_319" data-name="Trazado 319" class="cls-8" d="M2213.661-2508.272h-11.353V-2553.2h11.353v6.974a15.583,15.583,0,0,1,13.787-7.623v11.921h-3c-6.731,0-10.786,2.595-10.786,11.273Z" transform="translate(-1829.35 2568.284)"/>
      </g>
      <g id="Grupo_1157" data-name="Grupo 1157" transform="translate(814.609 -2536.361)">
        <g id="Grupo_1156" data-name="Grupo 1156" transform="translate(0 0)">
          <path id="Trazado_320" data-name="Trazado 320" class="cls-8" d="M868.1-2325.958c7.022,0,12.336,5.219,12.336,13.333,0,8.066-5.362,13.523-12.336,13.523a10.849,10.849,0,0,1-9.727-5.219v4.792h-4.318v-35.111h4.318v13.949A11.016,11.016,0,0,1,868.1-2325.958Zm-.9,3.748c-4.7,0-8.825,3.606-8.825,9.632,0,6.121,4.128,9.679,8.825,9.679,4.792,0,8.825-3.606,8.825-9.727S871.986-2322.21,867.194-2322.21Z" transform="translate(-854.051 2335.637)"/>
          <path id="Trazado_321" data-name="Trazado 321" class="cls-8" d="M997.031-2274.4h-4.318v-3.843a9.557,9.557,0,0,1-8.3,4.223c-5.978,0-10.676-3.7-10.676-11.15v-15.23H978v14.661c0,5.267,2.894,7.971,7.259,7.971,4.46,0,7.449-2.752,7.449-8.351V-2300.4h4.318Z" transform="translate(-941.896 2310.502)"/>
          <path id="Trazado_322" data-name="Trazado 322" class="cls-8" d="M1094.058-2275.146c-6.073,0-10.344-3.322-10.628-8.066h4.46c.238,2.515,2.468,4.413,6.121,4.413,3.416,0,5.314-1.708,5.314-3.843,0-5.789-15.373-2.42-15.373-12.1,0-3.986,3.749-7.26,9.537-7.26,5.741,0,9.537,3.084,9.822,8.161h-4.318c-.189-2.609-2.182-4.508-5.646-4.508-3.179,0-5.077,1.519-5.077,3.606,0,6.168,15.088,2.8,15.278,12.1C1103.548-2278.372,1099.8-2275.146,1094.058-2275.146Z" transform="translate(-1022.411 2311.68)"/>
          <path id="Trazado_323" data-name="Trazado 323" class="cls-8" d="M1179.211-2335.445a2.9,2.9,0,0,1,2.941-2.942,2.877,2.877,0,0,1,2.847,2.942,2.877,2.877,0,0,1-2.847,2.942A2.9,2.9,0,0,1,1179.211-2335.445Zm.712,7.165h4.318v26h-4.318Z" transform="translate(-1092.712 2338.387)"/>
          <path id="Trazado_324" data-name="Trazado 324" class="cls-8" d="M1244.788-2290.412c0-5.314-2.894-8.018-7.259-8.018-4.413,0-7.449,2.752-7.449,8.351v14.377h-4.318v-26h4.318v3.7a9.6,9.6,0,0,1,8.351-4.175c6.026,0,10.628,3.7,10.628,11.15v15.325h-4.271Z" transform="translate(-1126.88 2311.811)"/>
          <path id="Trazado_325" data-name="Trazado 325" class="cls-8" d="M1346.71-2275.146c-7.4,0-12.858-5.219-12.858-13.476,0-8.208,5.267-13.38,12.858-13.38,7.544,0,12.479,5.314,12.479,12.431a23.368,23.368,0,0,1-.143,2.61h-20.782c.332,5.266,4.033,8.161,8.446,8.161,3.891,0,6.358-1.993,7.307-4.792h4.65C1357.338-2278.846,1353.163-2275.146,1346.71-2275.146Zm-8.4-15.326h16.417c.048-5.077-3.748-7.876-8.208-7.876C1342.3-2298.348,1338.786-2295.548,1338.312-2290.471Z" transform="translate(-1206.215 2311.68)"/>
          <path id="Trazado_326" data-name="Trazado 326" class="cls-8" d="M1455.78-2275.146c-6.073,0-10.344-3.322-10.628-8.066h4.46c.237,2.515,2.467,4.413,6.121,4.413,3.416,0,5.314-1.708,5.314-3.843,0-5.789-15.373-2.42-15.373-12.1,0-3.986,3.749-7.26,9.537-7.26,5.741,0,9.537,3.084,9.822,8.161h-4.318c-.19-2.609-2.182-4.508-5.646-4.508-3.179,0-5.077,1.519-5.077,3.606,0,6.168,15.088,2.8,15.278,12.1C1465.27-2278.372,1461.521-2275.146,1455.78-2275.146Z" transform="translate(-1287.907 2311.68)"/>
          <path id="Trazado_327" data-name="Trazado 327" class="cls-8" d="M1548.885-2275.146c-6.073,0-10.344-3.322-10.628-8.066h4.46c.238,2.515,2.468,4.413,6.121,4.413,3.416,0,5.314-1.708,5.314-3.843,0-5.789-15.373-2.42-15.373-12.1,0-3.986,3.748-7.26,9.537-7.26,5.741,0,9.537,3.084,9.822,8.161h-4.318c-.19-2.609-2.182-4.508-5.646-4.508-3.179,0-5.077,1.519-5.077,3.606,0,6.168,15.088,2.8,15.278,12.1C1558.375-2278.372,1554.626-2275.146,1548.885-2275.146Z" transform="translate(-1356.245 2311.68)"/>
          <path id="Trazado_328" data-name="Trazado 328" class="cls-8" d="M1689.614-2275.146c-6.073,0-10.344-3.322-10.628-8.066h4.46c.237,2.515,2.467,4.413,6.121,4.413,3.416,0,5.314-1.708,5.314-3.843,0-5.789-15.373-2.42-15.373-12.1,0-3.986,3.749-7.26,9.537-7.26,5.741,0,9.537,3.084,9.822,8.161h-4.318c-.19-2.609-2.182-4.508-5.646-4.508-3.179,0-5.077,1.519-5.077,3.606,0,6.168,15.088,2.8,15.278,12.1C1699.1-2278.372,1695.355-2275.146,1689.614-2275.146Z" transform="translate(-1459.537 2311.68)"/>
          <path id="Trazado_329" data-name="Trazado 329" class="cls-8" d="M1784.046-2302c6.453,0,10.676,3.322,12,8.778h-4.65c-.9-3.132-3.511-5.125-7.354-5.125-4.745,0-8.256,3.369-8.256,9.727,0,6.453,3.511,9.822,8.256,9.822,3.843,0,6.405-1.851,7.354-5.124h4.65c-1.328,5.171-5.551,8.778-12,8.778-7.4,0-12.668-5.219-12.668-13.476C1771.378-2296.782,1776.645-2302,1784.046-2302Z" transform="translate(-1527.351 2311.68)"/>
          <path id="Trazado_330" data-name="Trazado 330" class="cls-8" d="M1885.709-2334.641h4.318v12.858c1.708-2.752,4.934-4.223,8.588-4.223,5.789,0,10.391,3.7,10.391,11.15v15.325h-4.271v-14.708c0-5.314-2.894-8.019-7.259-8.019-4.412,0-7.449,2.752-7.449,8.351v14.376h-4.318Z" transform="translate(-1611.268 2335.637)"/>
          <path id="Trazado_331" data-name="Trazado 331" class="cls-8" d="M2006.754-2275.146c-7.354,0-12.953-5.219-12.953-13.476,0-8.208,5.788-13.38,13.143-13.38,7.4,0,13.143,5.172,13.143,13.38C2020.086-2280.365,2014.155-2275.146,2006.754-2275.146Zm0-3.8c4.508,0,8.92-3.084,8.92-9.679,0-6.548-4.317-9.632-8.778-9.632-4.555,0-8.683,3.084-8.683,9.632C1998.213-2282.026,2002.247-2278.942,2006.754-2278.942Z" transform="translate(-1690.605 2311.68)"/>
          <path id="Trazado_332" data-name="Trazado 332" class="cls-8" d="M2120.908-2275.146c-7.354,0-12.953-5.219-12.953-13.476,0-8.208,5.789-13.38,13.143-13.38,7.4,0,13.143,5.172,13.143,13.38C2134.24-2280.365,2128.31-2275.146,2120.908-2275.146Zm0-3.8c4.508,0,8.92-3.084,8.92-9.679,0-6.548-4.318-9.632-8.778-9.632-4.555,0-8.683,3.084-8.683,9.632C2112.367-2282.026,2116.4-2278.942,2120.908-2278.942Z" transform="translate(-1774.392 2311.68)"/>
          <path id="Trazado_333" data-name="Trazado 333" class="cls-8" d="M2228.173-2334.641h4.318v35.111h-4.318Z" transform="translate(-1862.63 2335.637)"/>
        </g>
      </g>
    </g>
  </g>
</svg>
